<?xml version="1.0" standalone="yes"?>

<svg version="1.1" viewBox="0.0 0.0 200.00524934383202 198.68241469816272" fill="none" stroke="none" stroke-linecap="square" stroke-miterlimit="10" xmlns="http://www.w3.org/2000/svg" xmlns:xlink="http://www.w3.org/1999/xlink"><clipPath id="p.0"><path d="m0 0l200.00525 0l0 198.68242l-200.00525 0l0 -198.68242z" clip-rule="nonzero"></path></clipPath><g clip-path="url(#p.0)"><path fill="#000000" fill-opacity="0.0" d="m0 0l200.00525 0l0 198.68242l-200.00525 0z" fill-rule="evenodd"></path><path fill="#000000" d="m0.4120735 99.34252l0 0c0 -54.254368 44.588207 -98.23622 99.59055 -98.23622l0 0c26.413055 0 51.74431 10.349857 70.42116 28.772724c18.67685 18.422865 29.169388 43.40963 29.169388 69.4635l0 0c0 54.25437 -44.588196 98.23621 -99.590546 98.23621l0 0c-55.002342 0 -99.59055 -43.981842 -99.59055 -98.23621z" fill-rule="evenodd"></path><path stroke="#ffffff" stroke-width="1.0" stroke-linejoin="round" stroke-linecap="butt" d="m0.4120735 99.34252l0 0c0 -54.254368 44.588207 -98.23622 99.59055 -98.23622l0 0c26.413055 0 51.74431 10.349857 70.42116 28.772724c18.67685 18.422865 29.169388 43.40963 29.169388 69.4635l0 0c0 54.25437 -44.588196 98.23621 -99.590546 98.23621l0 0c-55.002342 0 -99.59055 -43.981842 -99.59055 -98.23621z" fill-rule="evenodd"></path><path fill="#ffffff" d="m166.16011 43.89501l0 0c0 4.374794 -3.5464783 7.921261 -7.9212646 7.921261l0 -7.921261l0 0c0 2.187397 -1.7732391 3.9606323 -3.9606323 3.9606323c-2.1873932 0 -3.9606323 -1.7732353 -3.9606323 -3.9606323l0 7.921261l-108.55118 0l0 0c-4.37479 0 -7.921257 3.5464706 -7.921257 7.921261l0 95.055115c0 4.3747864 3.5464668 7.9212646 7.921257 7.9212646c4.37479 0 7.921261 -3.5464783 7.921261 -7.9212646l0 -7.9212646l108.55118 0c4.3747864 0 7.9212646 -3.546463 7.9212646 -7.9212494zm-124.39371 23.763779c4.37479 0 7.921261 -3.546463 7.921261 -7.921257c0 -2.187397 -1.7732353 -3.9606323 -3.9606285 -3.9606323c-2.187397 0 -3.9606323 1.7732353 -3.9606323 3.9606323z" fill-rule="evenodd"></path><path fill="#cbcbcb" d="m41.766403 67.65879c4.37479 0 7.921261 -3.546463 7.921261 -7.921257c0 -2.187397 -1.7732353 -3.9606323 -3.9606285 -3.9606323c-2.187397 0 -3.9606323 1.7732353 -3.9606323 3.9606323zm116.47244 -15.842518c4.3747864 0 7.9212646 -3.5464668 7.9212646 -7.921261c0 -4.37479 -3.5464783 -7.921257 -7.9212646 -7.921257c-4.3747864 0 -7.9212646 3.5464668 -7.9212646 7.921257c0 2.187397 1.7732391 3.9606323 3.9606323 3.9606323c2.1873932 0 3.9606323 -1.7732353 3.9606323 -3.9606323z" fill-rule="evenodd"></path><path fill="#000000" fill-opacity="0.0" d="m33.845146 59.737534c0 -4.37479 3.5464668 -7.921261 7.921257 -7.921261l108.55118 0l0 -7.921261l0 0c0 -4.37479 3.5464783 -7.921257 7.9212646 -7.921257c4.3747864 0 7.9212646 3.5464668 7.9212646 7.921257l0 95.05512c0 4.3747864 -3.5464783 7.9212494 -7.9212646 7.9212494l-108.55118 0l0 7.9212646c0 4.3747864 -3.5464706 7.9212646 -7.921261 7.9212646c-4.37479 0 -7.921257 -3.5464783 -7.921257 -7.9212646zm116.472435 -7.921261l7.9212646 0c4.3747864 0 7.9212646 -3.5464668 7.9212646 -7.921261m-7.9212646 7.921261l0 -7.921261l0 0c0 2.187397 -1.7732391 3.9606323 -3.9606323 3.9606323c-2.1873932 0 -3.9606323 -1.7732353 -3.9606323 -3.9606323m-108.55118 23.763779l0 -7.921257l0 0c0 -2.187397 1.7732353 -3.9606323 3.9606323 -3.9606323c2.1873932 0 3.9606285 1.7732353 3.9606285 3.9606323c0 4.374794 -3.5464706 7.921257 -7.921261 7.921257c-4.37479 0 -7.921257 -3.546463 -7.921257 -7.921257m15.842518 0l0 87.13385" fill-rule="evenodd"></path><path stroke="#000000" stroke-width="1.0" stroke-linejoin="round" stroke-linecap="butt" d="m33.845146 59.737534c0 -4.37479 3.5464668 -7.921261 7.921257 -7.921261l108.55118 0l0 -7.921261l0 0c0 -4.37479 3.5464783 -7.921257 7.9212646 -7.921257c4.3747864 0 7.9212646 3.5464668 7.9212646 7.921257l0 95.05512c0 4.3747864 -3.5464783 7.9212494 -7.9212646 7.9212494l-108.55118 0l0 7.9212646c0 4.3747864 -3.5464706 7.9212646 -7.921261 7.9212646c-4.37479 0 -7.921257 -3.5464783 -7.921257 -7.9212646zm116.472435 -7.921261l7.9212646 0c4.3747864 0 7.9212646 -3.5464668 7.9212646 -7.921261m-7.9212646 7.921261l0 -7.921261l0 0c0 2.187397 -1.7732391 3.9606323 -3.9606323 3.9606323c-2.1873932 0 -3.9606323 -1.7732353 -3.9606323 -3.9606323m-108.55118 23.763779l0 -7.921257l0 0c0 -2.187397 1.7732353 -3.9606323 3.9606323 -3.9606323c2.1873932 0 3.9606285 1.7732353 3.9606285 3.9606323c0 4.374794 -3.5464706 7.921257 -7.921261 7.921257c-4.37479 0 -7.921257 -3.546463 -7.921257 -7.921257m15.842518 0l0 87.13385" fill-rule="evenodd"></path><path fill="#000000" fill-opacity="0.0" d="m65.88976 68.92126l89.637794 0l0 65.637794l-89.637794 0z" fill-rule="evenodd"></path><path fill="#000000" d="m83.23351 90.91938q0.140625 0.234375 0.234375 0.484375q0.109375 0.25 0.203125 0.5q0.09375 -0.265625 0.1875 -0.5q0.109375 -0.25 0.25 -0.5l4.609375 -8.359375q0.125 -0.21875 0.25 -0.265625q0.140625 -0.046875 0.375 -0.046875l1.359375 0l0 13.609375l-1.609375 0l0 -10.0q0 -0.203125 0 -0.421875q0.015625 -0.234375 0.03125 -0.46875l-4.65625 8.5q-0.234375 0.4375 -0.671875 0.4375l-0.265625 0q-0.421875 0 -0.65625 -0.4375l-4.765625 -8.53125q0.015625 0.25 0.03125 0.484375q0.015625 0.234375 0.015625 0.4375l0 10.0l-1.609375 0l0 -13.609375l1.359375 0q0.25 0 0.375 0.046875q0.140625 0.046875 0.25 0.265625l4.703125 8.375l0 0zm23.116882 -1.875q0 1.53125 -0.484375 2.8125q-0.484375 1.265625 -1.375 2.1875q-0.875 0.921875 -2.125 1.4375q-1.234375 0.5 -2.734375 0.5q-1.5 0 -2.734375 -0.5q-1.234375 -0.515625 -2.125 -1.4375q-0.875 -0.921875 -1.359375 -2.1875q-0.484375 -1.28125 -0.484375 -2.8125q0 -1.53125 0.484375 -2.8125q0.484375 -1.28125 1.359375 -2.203125q0.890625 -0.921875 2.125 -1.4375q1.234375 -0.515625 2.734375 -0.515625q1.5 0 2.734375 0.515625q1.25 0.515625 2.125 1.4375q0.890625 0.921875 1.375 2.203125q0.484375 1.28125 0.484375 2.8125zm-1.890625 0q0 -1.265625 -0.34375 -2.25q-0.34375 -1.0 -0.96875 -1.6875q-0.625 -0.6875 -1.515625 -1.0625q-0.890625 -0.375 -2.0 -0.375q-1.09375 0 -1.984375 0.375q-0.890625 0.375 -1.53125 1.0625q-0.625 0.6875 -0.96875 1.6875q-0.34375 0.984375 -0.34375 2.25q0 1.25 0.34375 2.25q0.34375 0.984375 0.96875 1.671875q0.640625 0.6875 1.53125 1.0625q0.890625 0.359375 1.984375 0.359375q1.109375 0 2.0 -0.359375q0.890625 -0.375 1.515625 -1.0625q0.625 -0.6875 0.96875 -1.671875q0.34375 -1.0 0.34375 -2.25zm2.5595703 -6.8125l1.46875 0q0.25 0 0.390625 0.125q0.15625 0.125 0.234375 0.3125l3.84375 9.59375q0.140625 0.328125 0.25 0.71875q0.109375 0.375 0.21875 0.78125q0.078125 -0.40625 0.171875 -0.78125q0.109375 -0.390625 0.234375 -0.71875l3.828125 -9.59375q0.078125 -0.171875 0.234375 -0.296875q0.15625 -0.140625 0.40625 -0.140625l1.46875 0l-5.546875 13.609375l-1.65625 0l-5.546875 -13.609375zm22.655006 0l0 1.5l-6.5468826 0l0 4.515625l5.2968826 0l0 1.453125l-5.2968826 0l0 4.640625l6.5468826 0l0 1.5l-8.390633 0l0 -13.609375l8.390633 0z" fill-rule="nonzero"></path><path fill="#000000" d="m78.73351 117.841255l-1.84375 0l0 -13.609375l1.84375 0l0 13.609375zm10.508713 -11.484375q-0.078125 0.140625 -0.1875 0.21875q-0.09375 0.0625 -0.234375 0.0625q-0.171875 0 -0.390625 -0.15625q-0.203125 -0.171875 -0.53125 -0.359375q-0.328125 -0.1875 -0.796875 -0.34375q-0.453125 -0.171875 -1.109375 -0.171875q-0.609375 0 -1.09375 0.171875q-0.46875 0.15625 -0.796875 0.453125q-0.3125 0.28125 -0.484375 0.671875q-0.15625 0.375 -0.15625 0.8125q0 0.578125 0.28125 0.953125q0.28125 0.375 0.734375 0.640625q0.46875 0.265625 1.046875 0.46875q0.59375 0.1875 1.203125 0.40625q0.609375 0.203125 1.1875 0.46875q0.59375 0.25 1.046875 0.65625q0.46875 0.390625 0.75 0.96875q0.28125 0.578125 0.28125 1.4375q0 0.890625 -0.3125 1.671875q-0.296875 0.78125 -0.890625 1.359375q-0.578125 0.578125 -1.421875 0.921875q-0.84375 0.328125 -1.9375 0.328125q-1.3125 0 -2.40625 -0.484375q-1.078125 -0.484375 -1.859375 -1.296875l0.53125 -0.875q0.078125 -0.109375 0.1875 -0.171875q0.109375 -0.078125 0.25 -0.078125q0.1875 0 0.4375 0.21875q0.265625 0.21875 0.65625 0.46875q0.390625 0.25 0.921875 0.46875q0.546875 0.21875 1.34375 0.21875q0.65625 0 1.171875 -0.171875q0.515625 -0.1875 0.859375 -0.515625q0.359375 -0.328125 0.546875 -0.78125q0.1875 -0.46875 0.1875 -1.015625q0 -0.625 -0.28125 -1.015625q-0.265625 -0.390625 -0.734375 -0.65625q-0.453125 -0.265625 -1.046875 -0.453125q-0.578125 -0.1875 -1.1875 -0.375q-0.609375 -0.203125 -1.203125 -0.453125q-0.578125 -0.265625 -1.03125 -0.671875q-0.453125 -0.40625 -0.734375 -1.015625q-0.28125 -0.625 -0.28125 -1.515625q0 -0.734375 0.28125 -1.40625q0.28125 -0.671875 0.8125 -1.1875q0.53125 -0.53125 1.3125 -0.84375q0.78125 -0.3125 1.796875 -0.3125q1.140625 0 2.078125 0.359375q0.953125 0.359375 1.65625 1.046875l-0.453125 0.875z" fill-rule="nonzero"></path></g></svg>

