<?xml version="1.0" standalone="yes"?>

<svg version="1.1" viewBox="0.0 0.0 100.0 100.0" fill="none" stroke="none" stroke-linecap="square" stroke-miterlimit="10" xmlns="http://www.w3.org/2000/svg" xmlns:xlink="http://www.w3.org/1999/xlink"><clipPath id="p.0"><path d="m0 0l100.0 0l0 100.0l-100.0 0l0 -100.0z" clip-rule="nonzero"></path></clipPath><g clip-path="url(#p.0)"><path fill="#000000" fill-opacity="0.0" d="m0 0l100.0 0l0 100.0l-100.0 0z" fill-rule="evenodd"></path><path fill="#000000" fill-opacity="0.0" d="m0 12.624672l100.0 0l0 26.141731l-100.0 0z" fill-rule="evenodd"></path><path fill="#000000" d="m19.546875 38.445923q0.171875 0.296875 0.296875 0.609375q0.125 0.3125 0.25 0.640625q0.109375 -0.328125 0.234375 -0.640625q0.140625 -0.3125 0.3125 -0.625l5.8125 -10.5625q0.15625 -0.28125 0.328125 -0.34375q0.171875 -0.0625 0.484375 -0.0625l1.71875 0l0 17.203125l-2.046875 0l0 -12.640625q0 -0.25 0.015625 -0.53125q0.015625 -0.296875 0.03125 -0.59375l-5.890625 10.75q-0.296875 0.546875 -0.84375 0.546875l-0.328125 0q-0.546875 0 -0.84375 -0.546875l-6.015625 -10.78125q0.03125 0.3125 0.046875 0.609375q0.015625 0.296875 0.015625 0.546875l0 12.640625l-2.03125 0l0 -17.203125l1.703125 0q0.3125 0 0.484375 0.0625q0.171875 0.0625 0.328125 0.34375l5.9375 10.578125l0 0zm29.59578 -2.375q0 1.9375 -0.609375 3.546875q-0.609375 1.609375 -1.734375 2.78125q-1.109375 1.15625 -2.6875 1.8125q-1.5625 0.640625 -3.453125 0.640625q-1.890625 0 -3.453125 -0.640625q-1.5625 -0.65625 -2.6875 -1.8125q-1.109375 -1.171875 -1.71875 -2.78125q-0.609375 -1.609375 -0.609375 -3.546875q0 -1.9375 0.609375 -3.546875q0.609375 -1.609375 1.71875 -2.78125q1.125 -1.171875 2.6875 -1.8125q1.5625 -0.65625 3.453125 -0.65625q1.890625 0 3.453125 0.65625q1.578125 0.640625 2.6875 1.8125q1.125 1.171875 1.734375 2.78125q0.609375 1.609375 0.609375 3.546875zm-2.390625 0q0 -1.578125 -0.4375 -2.84375q-0.421875 -1.265625 -1.21875 -2.125q-0.796875 -0.875 -1.921875 -1.34375q-1.125 -0.46875 -2.515625 -0.46875q-1.375 0 -2.515625 0.46875q-1.125 0.46875 -1.921875 1.34375q-0.796875 0.859375 -1.234375 2.125q-0.421875 1.265625 -0.421875 2.84375q0 1.578125 0.421875 2.84375q0.4375 1.25 1.234375 2.125q0.796875 0.859375 1.921875 1.328125q1.140625 0.453125 2.515625 0.453125q1.390625 0 2.515625 -0.453125q1.125 -0.46875 1.921875 -1.328125q0.796875 -0.875 1.21875 -2.125q0.4375 -1.265625 0.4375 -2.84375zm3.5740051 -8.609375l1.859375 0q0.3125 0 0.5 0.15625q0.203125 0.15625 0.296875 0.40625l4.859375 12.125q0.171875 0.40625 0.296875 0.890625q0.140625 0.484375 0.28125 1.0q0.109375 -0.515625 0.234375 -1.0q0.125 -0.484375 0.296875 -0.890625l4.828125 -12.125q0.078125 -0.203125 0.28125 -0.375q0.21875 -0.1875 0.515625 -0.1875l1.875 0l-7.015625 17.203125l-2.09375 0l-7.015625 -17.203125zm28.913864 0l0 1.90625l-8.265625 0l0 5.703125l6.6875 0l0 1.828125l-6.6875 0l0 5.875l8.265625 0l0 1.890625l-10.59375 0l0 -17.203125l10.59375 0z" fill-rule="nonzero"></path><path fill="#000000" d="m13.84375 73.66467l-2.328125 0l0 -17.203125l2.328125 0l0 17.203125zm13.414932 -14.515625q-0.109375 0.1875 -0.234375 0.28125q-0.109375 0.09375 -0.296875 0.09375q-0.203125 0 -0.484375 -0.203125q-0.265625 -0.21875 -0.6875 -0.453125q-0.40625 -0.25 -0.984375 -0.453125q-0.578125 -0.203125 -1.40625 -0.203125q-0.78125 0 -1.390625 0.21875q-0.59375 0.203125 -1.0 0.5625q-0.390625 0.359375 -0.609375 0.84375q-0.203125 0.484375 -0.203125 1.046875q0 0.71875 0.359375 1.203125q0.359375 0.46875 0.9375 0.8125q0.578125 0.328125 1.3125 0.578125q0.75 0.234375 1.515625 0.5q0.78125 0.265625 1.515625 0.59375q0.734375 0.328125 1.3125 0.84375q0.59375 0.5 0.9375 1.234375q0.359375 0.734375 0.359375 1.796875q0 1.125 -0.390625 2.125q-0.375 0.984375 -1.125 1.71875q-0.734375 0.734375 -1.8125 1.15625q-1.0625 0.40625 -2.4375 0.40625q-1.65625 0 -3.03125 -0.59375q-1.375 -0.609375 -2.34375 -1.640625l0.671875 -1.109375q0.09375 -0.125 0.21875 -0.21875q0.140625 -0.09375 0.3125 -0.09375q0.25 0 0.578125 0.28125q0.328125 0.265625 0.8125 0.59375q0.484375 0.3125 1.171875 0.59375q0.6875 0.265625 1.6875 0.265625q0.828125 0 1.46875 -0.234375q0.65625 -0.234375 1.109375 -0.640625q0.453125 -0.421875 0.6875 -0.984375q0.234375 -0.578125 0.234375 -1.296875q0 -0.765625 -0.359375 -1.265625q-0.34375 -0.5 -0.921875 -0.828125q-0.578125 -0.34375 -1.3125 -0.578125q-0.734375 -0.234375 -1.515625 -0.484375q-0.765625 -0.25 -1.515625 -0.5625q-0.734375 -0.328125 -1.3125 -0.84375q-0.578125 -0.515625 -0.9375 -1.28125q-0.34375 -0.78125 -0.34375 -1.921875q0 -0.921875 0.34375 -1.765625q0.359375 -0.859375 1.03125 -1.515625q0.671875 -0.65625 1.65625 -1.046875q1.0 -0.40625 2.28125 -0.40625q1.453125 0 2.640625 0.46875q1.1875 0.453125 2.0625 1.3125l-0.5625 1.09375z" fill-rule="nonzero"></path></g></svg>

